<svg width="155" height="155" viewBox="0 0 155 155" fill="none" xmlns="http://www.w3.org/2000/svg">
<g id="game-icons:speaker">
<path id="Vector" d="M83.4033 29.0625L54.3408 58.125H25.2783V96.875H54.3408L83.4033 125.938V29.0625ZM98.982 37.4386L97.5713 42.7022C113.333 46.9253 124.272 61.1811 124.272 77.5C124.272 93.8189 113.333 108.074 97.5713 112.298L98.982 117.561C117.101 112.706 129.722 96.258 129.722 77.5C129.722 58.7417 117.101 42.2935 98.982 37.4386ZM95.2206 51.4748L93.8104 56.7385C103.22 59.2596 109.741 67.7586 109.741 77.5C109.741 87.2414 103.22 95.7403 93.8104 98.2615L95.2206 103.525C106.987 100.372 115.19 89.6811 115.19 77.5C115.19 65.3189 106.987 54.6278 95.2206 51.4748ZM91.4594 65.5105L90.0496 70.7742C93.106 71.5937 95.21 74.3355 95.21 77.5C95.21 80.6645 93.106 83.4063 90.0492 84.2259L91.4594 89.4895C96.8735 88.0388 100.659 83.1048 100.659 77.5C100.659 71.8952 96.8735 66.9612 91.4594 65.5105Z" fill="#28252A"/>
</g>
</svg>
